# xmcd
#
# Track frame offsets: 
#        150
#        15147
#        36382
#        47287
#        63763
#        85142
#        104041
#        113611
#        130714
#        154936
#
# Disc length: 2269 seconds
#
# Revision: 5
# Processed by: cddbd v1.5.2PL0 Copyright (c) Steve Scherf et al.
# Submitted via: ExactAudioCopyFreeDBPlugin 1.0
#
DISCID=6f08db0a
DTITLE=The Original Animals - Before we were So Rudely Interrupted
DYEAR=1977
DGENRE=Blues
TTITLE0=Brother Bill (Last Clean Shirt)
TTITLE1=It's All Over Now Baby Blue
TTITLE2=Fire On The Sun
TTITLE3=As The Crow Flies
TTITLE4=Please Send Me Someone To Love
TTITLE5=Many Rivers To Cross
TTITLE6=Just A Little Bit
TTITLE7=Riverside County
TTITLE8=Lonely Avenue
TTITLE9=The Fool
EXTD=
EXTT0=
EXTT1=
EXTT2=
EXTT3=
EXTT4=
EXTT5=
EXTT6=
EXTT7=
EXTT8=
EXTT9=
PLAYORDER=
